<svg width="16" height="16" viewBox="0 0 16 16" fill="none" xmlns="http://www.w3.org/2000/svg">
<path d="M15.7588 7.87494L8.40349 0.52494C8.35053 0.471876 8.28762 0.429777 8.21837 0.401053C8.14912 0.372329 8.07489 0.357544 7.99992 0.357544C7.92494 0.357544 7.85071 0.372329 7.78146 0.401053C7.71221 0.429777 7.6493 0.471876 7.59634 0.52494L0.240988 7.87494C0.026702 8.08923 -0.0947266 8.3803 -0.0947266 8.68387C-0.0947266 9.31423 0.417773 9.82673 1.04813 9.82673H1.82313V15.0714C1.82313 15.3874 2.07849 15.6428 2.39456 15.6428H6.85706V11.6428H8.85706V15.6428H13.6053C13.9213 15.6428 14.1767 15.3874 14.1767 15.0714V9.82673H14.9517C15.2553 9.82673 15.5463 9.70708 15.7606 9.49101C16.2053 9.04458 16.2053 8.32137 15.7588 7.87494Z" fill="#5496D4"/>
</svg>
