<svg xmlns="http://www.w3.org/2000/svg" width="16" height="16" viewBox="0 0 16 16" fill="none">
<g clip-path="url(#clip0_1274_48)">
<path d="M8.17315 0.321438C5.44994 0.314295 3.05351 1.72322 1.68387 3.8518C1.62315 3.94644 1.69101 4.07144 1.80351 4.07144H3.05887C3.14458 4.07144 3.22494 4.03394 3.27851 3.96787C3.40351 3.81608 3.53744 3.66965 3.67851 3.53037C4.26065 2.95001 4.93744 2.49287 5.69101 2.17501C6.46958 1.84644 7.29815 1.67858 8.15351 1.67858C9.00887 1.67858 9.83744 1.84465 10.616 2.17501C11.3696 2.49287 12.0464 2.95001 12.6285 3.53037C13.2107 4.11072 13.666 4.78751 13.9857 5.5393C14.316 6.31787 14.4821 7.14465 14.4821 8.00001C14.4821 8.85537 14.3142 9.68215 13.9857 10.4607C13.6678 11.2125 13.2107 11.8893 12.6285 12.4697C12.0464 13.05 11.3696 13.5072 10.616 13.825C9.83683 14.1541 8.99935 14.3229 8.15351 14.3214C7.29815 14.3214 6.46958 14.1536 5.69101 13.825C4.93892 13.5075 4.25549 13.0472 3.67851 12.4697C3.53744 12.3286 3.4053 12.1822 3.27851 12.0322C3.22494 11.9661 3.1428 11.9286 3.05887 11.9286H1.80351C1.69101 11.9286 1.62137 12.0536 1.68387 12.1482C3.05173 14.2714 5.43744 15.6786 8.15351 15.6786C12.3714 15.6786 15.7964 12.2839 15.8392 8.07858C15.8821 3.80537 12.4517 0.332152 8.17315 0.321438ZM5.91101 10V8.64287H0.303868C0.225296 8.64287 0.161011 8.57858 0.161011 8.50001V7.50001C0.161011 7.42144 0.225296 7.35715 0.303868 7.35715H5.91101V6.00001C5.91101 5.88037 6.0503 5.81251 6.14315 5.88751L8.67708 7.88751C8.69416 7.90087 8.70797 7.91795 8.71746 7.93744C8.72696 7.95693 8.7319 7.97833 8.7319 8.00001C8.7319 8.02169 8.72696 8.04309 8.71746 8.06258C8.70797 8.08207 8.69416 8.09915 8.67708 8.11251L6.14315 10.1125C6.0503 10.1857 5.91101 10.1197 5.91101 10Z" fill="#FEFEFE"/>
</g>
<defs>
<clipPath id="clip0_1274_48">
<rect width="16" height="16" fill="white"/>
</clipPath>
</defs>
</svg>