<svg width="12" height="16" viewBox="0 0 12 16" fill="none" xmlns="http://www.w3.org/2000/svg">
<path d="M11.4286 12.5714H11V6.5C11 3.98035 9.1375 1.89821 6.71429 1.55178V0.857139C6.71429 0.462496 6.39464 0.142853 6 0.142853C5.60536 0.142853 5.28571 0.462496 5.28571 0.857139V1.55178C2.8625 1.89821 1 3.98035 1 6.5V12.5714H0.571429C0.255357 12.5714 0 12.8268 0 13.1429V13.7143C0 13.7929 0.0642857 13.8571 0.142857 13.8571H4C4 14.9607 4.89643 15.8571 6 15.8571C7.10357 15.8571 8 14.9607 8 13.8571H11.8571C11.9357 13.8571 12 13.7929 12 13.7143V13.1429C12 12.8268 11.7446 12.5714 11.4286 12.5714ZM6 14.7143C5.52679 14.7143 5.14286 14.3304 5.14286 13.8571H6.85714C6.85714 14.3304 6.47321 14.7143 6 14.7143ZM2.28571 12.5714V6.5C2.28571 5.50714 2.67143 4.575 3.37321 3.87321C4.075 3.17142 5.00714 2.78571 6 2.78571C6.99286 2.78571 7.925 3.17142 8.62679 3.87321C9.32857 4.575 9.71429 5.50714 9.71429 6.5V12.5714H2.28571Z" fill="#3A4045"/>
</svg>
