<svg xmlns="http://www.w3.org/2000/svg" width="16" height="14" viewBox="0 0 16 14" fill="none">
  <path d="M15 0.714233H0.999974C0.921402 0.714233 0.857117 0.778519 0.857117 0.857091V1.99995C0.857117 2.07852 0.921402 2.1428 0.999974 2.1428H15C15.0785 2.1428 15.1428 2.07852 15.1428 1.99995V0.857091C15.1428 0.778519 15.0785 0.714233 15 0.714233ZM15 11.8571H0.999974C0.921402 11.8571 0.857117 11.9214 0.857117 11.9999V13.1428C0.857117 13.2214 0.921402 13.2857 0.999974 13.2857H15C15.0785 13.2857 15.1428 13.2214 15.1428 13.1428V11.9999C15.1428 11.9214 15.0785 11.8571 15 11.8571ZM15 6.28566H0.999974C0.921402 6.28566 0.857117 6.34995 0.857117 6.42852V7.57138C0.857117 7.64995 0.921402 7.71423 0.999974 7.71423H15C15.0785 7.71423 15.1428 7.64995 15.1428 7.57138V6.42852C15.1428 6.34995 15.0785 6.28566 15 6.28566Z" fill="#FEFEFE"/>
</svg>