<svg width="20" height="20" viewBox="0 0 20 20" fill="none" xmlns="http://www.w3.org/2000/svg">
<path d="M18.2141 2.72298H14.4641V1.32952C14.4641 1.23372 14.3838 1.15533 14.2856 1.15533H13.0356C12.9374 1.15533 12.857 1.23372 12.857 1.32952V2.72298H7.14272V1.32952C7.14272 1.23372 7.06236 1.15533 6.96415 1.15533H5.71415C5.61593 1.15533 5.53557 1.23372 5.53557 1.32952V2.72298H1.78557C1.39049 2.72298 1.07129 3.03434 1.07129 3.41972V17.8769C1.07129 18.2623 1.39049 18.5737 1.78557 18.5737H18.2141C18.6092 18.5737 18.9284 18.2623 18.9284 17.8769V3.41972C18.9284 3.03434 18.6092 2.72298 18.2141 2.72298ZM17.3213 17.006H2.67843V8.7323H17.3213V17.006ZM2.67843 7.25175V4.29063H5.53557V5.33573C5.53557 5.43153 5.61593 5.50991 5.71415 5.50991H6.96415C7.06236 5.50991 7.14272 5.43153 7.14272 5.33573V4.29063H12.857V5.33573C12.857 5.43153 12.9374 5.50991 13.0356 5.50991H14.2856C14.3838 5.50991 14.4641 5.43153 14.4641 5.33573V4.29063H17.3213V7.25175H2.67843Z" fill="#3A4045"/>
</svg>
