<svg width="20" height="20" viewBox="0 0 20 20" fill="none" xmlns="http://www.w3.org/2000/svg">
<g clip-path="url(#clip0_2123_252)">
<path d="M11.3615 7.88318C10.8458 7.88318 10.4463 8.27291 10.4463 8.75409C10.4463 9.23528 10.8458 9.62501 11.3615 9.62501C11.8325 9.62501 12.232 9.23528 12.232 8.75409C12.232 8.27291 11.8325 7.88318 11.3615 7.88318ZM5.11147 7.88318C4.59584 7.88318 4.19629 8.27291 4.19629 8.75409C4.19629 9.23528 4.59584 9.62501 5.11147 9.62501C5.58245 9.62501 5.982 9.23528 5.982 8.75409C5.982 8.27291 5.58245 7.88318 5.11147 7.88318Z" fill="#3A4045"/>
<path d="M18.5265 6.22841C17.4938 4.84178 16.0046 3.84268 14.3077 3.39793V3.40011C13.926 2.98642 13.4952 2.6054 13.0131 2.26574C9.35908 -0.325236 4.22961 0.46512 1.5622 4.02934C-0.587352 6.92514 -0.495834 10.8203 1.69613 13.5876L1.71399 16.4747C1.71399 16.5444 1.72515 16.6141 1.74747 16.6794C1.77555 16.7666 1.82098 16.8476 1.88118 16.9177C1.94138 16.9878 2.01515 17.0457 2.09829 17.0879C2.18142 17.1302 2.27229 17.1561 2.36568 17.1641C2.45907 17.172 2.55316 17.162 2.64256 17.1345L5.46845 16.2657C6.21622 16.5248 6.98854 16.6729 7.7564 16.7142L7.74524 16.7229C9.73408 18.136 12.3412 18.5606 14.7318 17.7898L17.5689 18.6912C17.6403 18.713 17.714 18.726 17.7899 18.726C18.185 18.726 18.5042 18.4147 18.5042 18.0293V15.1117C20.4707 12.5077 20.522 8.90865 18.5265 6.22841ZM5.78095 14.7198L5.51309 14.611L3.30327 15.2859L3.28095 13.0216L3.10238 12.8256C1.21399 10.5786 1.08899 7.341 2.85685 4.96558C5.00863 2.0872 9.13363 1.45143 12.0756 3.52857C15.0265 5.62094 15.6805 9.63804 13.5488 12.499C11.7609 14.8918 8.55997 15.7758 5.78095 14.7198ZM17.0533 14.3497L16.8747 14.5674L16.897 16.8318L14.7095 16.1133L14.4417 16.2222C13.1917 16.675 11.8591 16.7121 10.6247 16.3746L10.6202 16.3724C12.3167 15.8649 13.7987 14.8343 14.8435 13.4352C16.5488 11.1425 16.8256 8.262 15.8345 5.80601L15.8479 5.81472C16.3613 6.17397 16.8323 6.6225 17.2318 7.16464C18.8524 9.33322 18.7609 12.2856 17.0533 14.3497Z" fill="#3A4045"/>
<path d="M8.23647 7.88318C7.72084 7.88318 7.32129 8.27291 7.32129 8.75409C7.32129 9.23528 7.72084 9.62501 8.23647 9.62501C8.70745 9.62501 9.107 9.23528 9.107 8.75409C9.107 8.27291 8.70745 7.88318 8.23647 7.88318Z" fill="#3A4045"/>
</g>
<defs>
<clipPath id="clip0_2123_252">
<rect width="20" height="19.5085" fill="white" transform="translate(0 0.110229)"/>
</clipPath>
</defs>
</svg>
