<svg width="14" height="16" viewBox="0 0 14 16" fill="none" xmlns="http://www.w3.org/2000/svg">
<path d="M13.2857 3.42854H11V1.99997C11 1.36962 10.4875 0.857117 9.85711 0.857117H4.14282C3.51247 0.857117 2.99997 1.36962 2.99997 1.99997V3.42854H0.714251C0.398179 3.42854 0.142822 3.6839 0.142822 3.99997V4.5714C0.142822 4.64997 0.207108 4.71426 0.285679 4.71426H1.36425L1.80532 14.0535C1.83389 14.6625 2.33747 15.1428 2.94639 15.1428H11.0535C11.6643 15.1428 12.166 14.6643 12.1946 14.0535L12.6357 4.71426H13.7143C13.7928 4.71426 13.8571 4.64997 13.8571 4.5714V3.99997C13.8571 3.6839 13.6018 3.42854 13.2857 3.42854ZM9.71425 3.42854H4.28568V2.14283H9.71425V3.42854Z" fill="#FEFEFE"/>
</svg>
