<svg width="16" height="16" viewBox="0 0 16 16" fill="none" xmlns="http://www.w3.org/2000/svg">
<path d="M14.5715 13.7857H1.42861C1.11253 13.7857 0.857178 14.041 0.857178 14.3571V15C0.857178 15.0785 0.921463 15.1428 1.00003 15.1428H15C15.0786 15.1428 15.1429 15.0785 15.1429 15V14.3571C15.1429 14.041 14.8875 13.7857 14.5715 13.7857ZM3.45896 12.2857C3.49468 12.2857 3.53039 12.2821 3.56611 12.2768L6.56968 11.75C6.60539 11.7428 6.63932 11.7268 6.66432 11.7L14.234 4.13033C14.2505 4.11381 14.2637 4.09419 14.2726 4.07259C14.2816 4.05098 14.2862 4.02783 14.2862 4.00444C14.2862 3.98105 14.2816 3.95789 14.2726 3.93629C14.2637 3.91469 14.2505 3.89507 14.234 3.87855L11.2661 0.908902C11.2322 0.874974 11.1875 0.857117 11.1393 0.857117C11.0911 0.857117 11.0465 0.874974 11.0125 0.908902L3.44289 8.47855C3.41611 8.50533 3.40003 8.53747 3.39289 8.57319L2.86611 11.5768C2.84873 11.6724 2.85494 11.7709 2.88419 11.8636C2.91344 11.9563 2.96485 12.0405 3.03396 12.1089C3.15182 12.2232 3.30004 12.2857 3.45896 12.2857Z" fill="#FEFEFE"/>
</svg>
