<svg width="15" height="15" viewBox="0 0 15 15" fill="none" xmlns="http://www.w3.org/2000/svg">
<path d="M12 5.99999H3.08004L5.78004 2.61999C5.87509 2.51929 5.94819 2.39995 5.99471 2.26952C6.04123 2.1391 6.06016 2.00043 6.05029 1.86231C6.04043 1.72419 6.00198 1.58962 5.93739 1.46713C5.8728 1.34464 5.78348 1.2369 5.67508 1.15074C5.56668 1.06458 5.44157 1.00186 5.30766 0.966576C5.17376 0.93129 5.03399 0.924197 4.8972 0.945749C4.76042 0.9673 4.6296 1.01703 4.51303 1.09177C4.39646 1.16652 4.29669 1.26467 4.22004 1.37999L0.220037 6.37999C0.0805274 6.55654 0.00463867 6.77497 0.00463867 6.99999C0.00463867 7.225 0.0805274 7.44344 0.220037 7.61999L4.22004 12.62C4.31316 12.7378 4.43164 12.8332 4.56668 12.899C4.70171 12.9648 4.84983 12.9993 5.00004 13C5.2256 12.9987 5.4441 12.9211 5.62004 12.78C5.82609 12.615 5.95854 12.3752 5.98851 12.113C6.01848 11.8507 5.94354 11.5872 5.78004 11.38L3.08004 7.99999H12C12.2653 7.99999 12.5196 8.10535 12.7071 8.29288C12.8947 8.48042 13 8.73477 13 8.99999V14C13 14.2652 13.1054 14.5196 13.2929 14.7071C13.4805 14.8946 13.7348 15 14 15C14.2653 15 14.5196 14.8946 14.7071 14.7071C14.8947 14.5196 15 14.2652 15 14V8.99999C15 8.20434 14.684 7.44128 14.1214 6.87867C13.5587 6.31606 12.7957 5.99999 12 5.99999Z" fill="black"/>
</svg>
