<svg width="20" height="20" viewBox="0 0 20 20" fill="none" xmlns="http://www.w3.org/2000/svg">
<g clip-path="url(#clip0_6731_271)">
<path d="M17.9464 14.9107H16.3772C16.2701 14.9107 16.1696 14.9576 16.1027 15.0402C15.9464 15.2299 15.779 15.4129 15.6027 15.5871C14.8815 16.309 14.0272 16.8843 13.0871 17.2812C12.1131 17.6926 11.0662 17.9037 10.0089 17.9018C8.93973 17.9018 7.90402 17.692 6.93081 17.2812C5.99069 16.8843 5.1364 16.309 4.41518 15.5871C3.69267 14.8675 3.11656 14.0147 2.71875 13.0759C2.30581 12.1027 2.09822 11.0692 2.09822 10C2.09822 8.9308 2.30804 7.89732 2.71875 6.9241C3.11607 5.98437 3.6875 5.13839 4.41518 4.41294C5.14286 3.6875 5.98884 3.11607 6.93081 2.71875C7.90402 2.30803 8.93973 2.09821 10.0089 2.09821C11.0781 2.09821 12.1138 2.3058 13.0871 2.71875C14.029 3.11607 14.875 3.6875 15.6027 4.41294C15.779 4.58928 15.9442 4.77232 16.1027 4.95982C16.1696 5.04241 16.2723 5.08928 16.3772 5.08928H17.9464C18.0871 5.08928 18.1741 4.93303 18.096 4.81473C16.3839 2.15401 13.3884 0.392854 9.98438 0.401782C4.63616 0.415175 0.348216 4.75669 0.401787 10.0982C0.455359 15.3549 4.73661 19.5982 10.0089 19.5982C13.404 19.5982 16.3862 17.8393 18.096 15.1853C18.1719 15.067 18.0871 14.9107 17.9464 14.9107ZM19.9308 9.85937L16.7634 7.35937C16.6451 7.26562 16.4732 7.35044 16.4732 7.5V9.19643H9.46429C9.36607 9.19643 9.28572 9.27678 9.28572 9.375V10.625C9.28572 10.7232 9.36607 10.8036 9.46429 10.8036H16.4732V12.5C16.4732 12.6496 16.6473 12.7344 16.7634 12.6406L19.9308 10.1406C19.9521 10.1239 19.9694 10.1026 19.9813 10.0782C19.9932 10.0538 19.9993 10.0271 19.9993 10C19.9993 9.97289 19.9932 9.94615 19.9813 9.92178C19.9694 9.89742 19.9521 9.87608 19.9308 9.85937Z" fill="#E8454D"/>
</g>
<defs>
<clipPath id="clip0_6731_271">
<rect width="20" height="20" fill="white"/>
</clipPath>
</defs>
</svg>
