<svg width="14" height="14" viewBox="0 0 14 14" fill="orange" xmlns="http://www.w3.org/2000/svg">
<g clip-path="url(#clip0_5129_112)">
<path d="M10.1111 0.777771H3.88889C3.68261 0.777771 3.48478 0.859715 3.33892 1.00558C3.19306 1.15144 3.11111 1.34927 3.11111 1.55555V12.4172C3.11099 12.5714 3.15668 12.7221 3.24237 12.8502C3.32807 12.9784 3.44992 13.0781 3.59243 13.1369C3.73495 13.1957 3.89171 13.2107 4.04282 13.1802C4.19392 13.1497 4.33256 13.075 4.44111 12.9655L6.98444 10.43L9.56278 12.9967C9.67177 13.105 9.81042 13.1786 9.96123 13.2083C10.112 13.2379 10.2682 13.2221 10.4101 13.1631C10.552 13.104 10.6732 13.0042 10.7584 12.8763C10.8436 12.7484 10.889 12.5981 10.8889 12.4444V1.55555C10.8889 1.34927 10.8069 1.15144 10.6611 1.00558C10.5152 0.859715 10.3174 0.777771 10.1111 0.777771Z" fill="#414B5A"/>
</g>
<defs>
<clipPath id="clip0_5129_112">
<rect width="14" height="14" fill="orange"/>
</clipPath>
</defs>
</svg>
