<svg width="12" height="12" viewBox="0 0 12 12" fill="none" xmlns="http://www.w3.org/2000/svg">
<g clip-path="url(#clip0_5129_98)">
<path d="M8.1761 0.666687H3.14465C2.97785 0.666687 2.81788 0.736925 2.69993 0.861949C2.58199 0.986973 2.51572 1.15654 2.51572 1.33335V10.6434C2.51562 10.7755 2.55257 10.9047 2.62187 11.0145C2.69116 11.1243 2.78969 11.2099 2.90493 11.2602C3.02018 11.3106 3.14694 11.3235 3.26913 11.2974C3.39131 11.2712 3.50341 11.2072 3.5912 11.1134L5.6478 8.94002L7.7327 11.14C7.82084 11.2329 7.93296 11.296 8.0549 11.3214C8.17685 11.3468 8.30315 11.3333 8.41788 11.2827C8.5326 11.232 8.6306 11.1465 8.69951 11.0369C8.76841 10.9272 8.80513 10.7984 8.80503 10.6667V1.33335C8.80503 1.15654 8.73877 0.986973 8.62082 0.861949C8.50287 0.736925 8.3429 0.666687 8.1761 0.666687Z" fill="#8DBBFF"/>
</g>
<defs>
<clipPath id="clip0_5129_98">
<rect width="11.3208" height="12" fill="white"/>
</clipPath>
</defs>
</svg>
